<svg xmlns:dc="http://purl.org/dc/elements/1.1/" xmlns:cc="http://creativecommons.org/ns#" xmlns:rdf="http://www.w3.org/1999/02/22-rdf-syntax-ns#" xmlns:svg="http://www.w3.org/2000/svg" xmlns="http://www.w3.org/2000/svg" xmlns:sodipodi="http://sodipodi.sourceforge.net/DTD/sodipodi-0.dtd" xmlns:inkscape="http://www.inkscape.org/namespaces/inkscape" version="1.1" id="svg869" width="1333.3333" height="1040" sodipodi:docname="20574585.svg" inkscape:version="0.92.5 (2060ec1f9f, 2020-04-08)">
  <metadata id="metadata875">
    <rdf:rdf>
      <cc:work rdf:about="">
        <dc:format>image/svg+xml</dc:format>
        <dc:type rdf:resource="http://purl.org/dc/dcmitype/StillImage"></dc:type>
        <dc:title></dc:title>
      </cc:work>
    </rdf:rdf>
  </metadata>
  <defs id="defs873"></defs>
  <sodipodi:namedview pagecolor="#ffffff" bordercolor="#666666" borderopacity="1" objecttolerance="10" gridtolerance="10" guidetolerance="10" inkscape:pageopacity="0" inkscape:pageshadow="2" inkscape:window-width="1364" inkscape:window-height="747" id="namedview871" showgrid="false" inkscape:zoom="0.37803016" inkscape:cx="309.69932" inkscape:cy="645.55427" inkscape:window-x="0" inkscape:window-y="0" inkscape:window-maximized="0" inkscape:current-layer="svg869"></sodipodi:namedview>
  <path style="fill:#ffffff;stroke-width:1" d="m 719.33332,877.27608 c -3.66667,-0.63727 -9.16856,-2.04149 -12.22642,-3.12051 -3.05786,-1.07901 -6.72585,-1.65689 -8.15109,-1.28418 -1.73555,0.45385 -4.96324,-1.25279 -9.77357,-5.16779 -6.83867,-5.56579 -7.20156,-6.17763 -7.58579,-12.78943 -0.33333,-5.73608 0.0145,-7.07529 2,-7.69878 1.32195,-0.41514 8.10353,-3.55843 15.0702,-6.9851 12.10224,-5.95266 12.83937,-6.56602 16.54255,-13.76484 3.85012,-7.48448 3.94208,-7.5542 13.8429,-10.49342 8.54068,-2.53544 10.17447,-3.5084 11.41644,-6.79879 1.23473,-3.27116 2.17493,-3.83991 6.34777,-3.83991 3.22136,0 5.1734,0.71674 5.70172,2.09352 0.48046,1.25206 2.00436,1.92195 3.79138,1.66667 3.10254,-0.44321 2.97994,-0.0936 6.22658,-17.76019 1.41035,-7.67438 -0.43284,-13.32774 -4.35009,-13.34252 -1.34001,-0.005 -3.63793,-1.49301 -5.10648,-3.3066 l -2.67009,-3.29741 2.79532,-1.85603 c 1.53744,-1.02081 2.79533,-2.52654 2.79533,-3.34605 0,-3.51077 4.86348,-12.93109 7.03552,-13.62748 1.30287,-0.41772 3.33799,-2.23856 4.52247,-4.04632 1.73242,-2.644 1.85585,-3.94032 0.63114,-6.62828 -0.83736,-1.8378 -1.52642,-4.66321 -1.53125,-6.27871 -0.005,-1.61549 -1.20088,-4.73726 -2.65788,-6.93726 -1.457,-2.2 -2.65305,-4.94542 -2.65788,-6.10092 -0.005,-1.1555 -1.54864,-3.54754 -3.43069,-5.31562 -1.88204,-1.76809 -4.9412,-6.00617 -6.79812,-9.41794 -2.79295,-5.13158 -5.40296,-7.39287 -15.10802,-13.08946 -11.63946,-6.83202 -13.27778,-8.76406 -13.32042,-15.70849 -0.012,-1.98933 -1.44488,-3.70056 -4.35153,-5.19761 -11.37798,-5.86016 -21,-14.63579 -21,-19.15275 0,-1.91613 -0.63064,-4.11452 -1.40142,-4.88529 -0.97965,-0.97966 -0.37776,-3.32663 2,-7.79859 1.87078,-3.51844 3.40142,-7.69313 3.40142,-9.27708 0,-1.58395 0.88092,-4.04459 1.9576,-5.46808 1.62829,-2.1528 1.9661,-10.10181 2.00821,-47.25484 0.0419,-36.95688 0.39441,-45.32587 2.0424,-48.48575 1.09548,-2.10049 1.99179,-5.00981 1.99179,-6.46516 0,-1.45534 0.84328,-4.53676 1.87394,-6.84758 1.03068,-2.31083 2.21474,-7.45556 2.63124,-11.43274 0.41651,-3.97718 1.37323,-7.84718 2.12604,-8.6 0.75283,-0.75282 1.36878,-5.77406 1.36878,-11.15832 0,-5.38425 0.84902,-14.11425 1.88673,-19.4 1.03771,-5.28574 2.28499,-11.96758 2.77175,-14.84853 0.48676,-2.88095 1.98313,-7.68095 3.32526,-10.66667 1.34214,-2.98572 3.16991,-10.38956 4.06172,-16.45298 0.8918,-6.06342 2.1464,-11.34883 2.788,-11.74535 0.64159,-0.39653 1.16653,-4.45205 1.16653,-9.01227 0,-4.78344 0.76303,-9.404 1.80351,-10.9213 0.99193,-1.44651 2.21016,-6.1905 2.70717,-10.5422 0.49702,-4.35171 1.61531,-8.76967 2.48511,-9.81771 1.11936,-1.34875 1.65601,-12.47763 1.83665,-38.08781 0.38664,-54.81303 2.80623,-93.7418 6.05687,-97.44896 0.61088,-0.69667 1.11069,-3.78248 1.11069,-6.85735 0,-3.48347 0.68342,-5.85293 1.81316,-6.28645 1.00736,-0.38656 2.20966,-3.68468 2.70532,-7.42119 0.4907,-3.69897 1.42256,-7.05321 2.07083,-7.45387 0.64827,-0.40065 1.59871,-3.2753 2.11209,-6.38813 0.51339,-3.11283 1.39776,-6.25968 1.96527,-6.99301 0.56751,-0.73334 1.46751,-4.03334 2,-7.33334 0.53249,-3.3 1.50531,-6.66746 2.16181,-7.48326 0.6565,-0.8158 1.57047,-14.6158 2.03106,-30.66667 0.46057,-16.05087 1.41754,-29.91952 2.1266,-30.81923 0.70905,-0.8997 1.60508,-10.4997 1.99117,-21.333329 0.38609,-10.833629 1.31565,-20.469245 2.06568,-21.412478 0.75004,-0.943235 1.65395,-6.343235 2.00868,-12 0.35473,-5.656767 1.28163,-10.693612 2.05976,-11.192992 1.74256,-1.118326 8.54969,1.65031 17.30925,7.04012 3.68351,2.266484 10.52642,4.847456 15.43206,5.82058 4.84766,0.961622 11.04466,2.715646 13.7711,3.897833 2.72646,1.182187 8.3159,2.149429 12.42099,2.149429 8.14763,0 12.62184,1.67088 12.62184,4.713579 0,1.074199 0.50323,1.953088 1.11829,1.953088 1.61304,0 4.24248,42.75035 3.97744,64.66667 -0.15641,12.93344 0.43576,21.73804 1.92803,28.66666 1.18459,5.5 2.78695,15.7 3.5608,22.66667 0.77385,6.96667 2.22645,15.06667 3.22797,18 2.6593,7.78868 5.90024,32.83237 7.50589,58 0.77196,12.1 1.99112,25.33612 2.70924,29.4136 0.71812,4.07747 1.30567,15.54656 1.30567,25.48685 0,15.74406 0.32684,18.48876 2.53605,21.29732 1.39483,1.77324 2.81312,4.70415 3.15176,6.51315 0.5777,3.08607 0.62691,3.10391 0.79728,0.28908 0.10267,-1.69708 1.05019,-3 2.18158,-3 1.1,0 3.2,-1.2 4.66666,-2.66667 2.22324,-2.22324 2.66667,-4.44444 2.66667,-13.35784 0,-9.30644 3.61695,-28.11964 6.21408,-32.32186 0.40539,-0.65594 1.59037,-4.89634 2.63332,-9.42312 1.04295,-4.52678 4.04015,-13.63051 6.66045,-20.23051 2.6203,-6.6 5.98327,-15.3 7.47326,-19.33333 1.48998,-4.03334 4.67096,-11.83358 7.06882,-17.33386 5.54458,-12.71825 8.02735,-21.74896 11.91334,-43.33281 1.71638,-9.53333 4.12272,-20.03333 5.3474,-23.33333 1.22468,-3.3 2.73576,-8.4 3.35797,-11.33334 1.36209,-6.42154 5.01063,-17.41256 7.30303,-22 0.91613,-1.83333 2.08697,-6.62673 2.60188,-10.65199 C 951.21126,116.48408 956.9155,108 962.46719,108 c 2.496,0 11.84321,10.01757 12.69631,13.60686 0.65162,2.74166 2.05416,3.93927 5.84686,4.99257 2.7443,0.76213 6.05956,1.38904 7.36727,1.39313 1.92493,0.006 14.91417,5.75989 16.77367,7.43025 0.9901,0.88943 0.013,31.56627 -1.0736,33.69715 -1.6298,3.1968 -4.024,15.15525 -5.64843,28.21337 -1.0026,8.05911 -2.18364,12.18038 -4.08807,14.26524 -1.83613,2.01014 -2.46076,4.06902 -1.98674,6.54868 0.40484,2.11779 -0.25174,5.32348 -1.58419,7.73476 -1.25157,2.2649 -3.08349,8.61799 -4.07093,14.11799 -0.98744,5.5 -2.29196,10.65329 -2.89894,11.45177 -0.60697,0.79847 -1.67694,5.89847 -2.37772,11.33334 -1.85081,14.35396 -4.02757,25.54624 -5.48393,28.1968 -0.69965,1.27338 -1.27211,3.78797 -1.27211,5.58797 0,1.80001 -0.5029,3.58356 -1.11757,3.96344 -0.61465,0.37988 -0.83872,8.41284 -0.49791,17.85103 0.45578,12.62198 0.15742,18.01394 -1.12816,20.388 -2.75645,5.09028 -4.21097,14.05424 -4.84594,29.8646 -0.32331,8.0503 -1.14135,15.30386 -1.81784,16.119 -0.67651,0.81513 -1.21884,3.8285 -1.2052,6.69638 0.0399,8.37239 -1.54906,19.74311 -3.00891,21.53306 -0.74107,0.90862 -0.96097,3.71184 -0.48868,6.22936 0.4988,2.65889 0.28273,4.93326 -0.51555,5.42664 -0.75582,0.46713 -1.37424,2.24045 -1.37424,3.9407 0,1.70027 -0.84113,3.78947 -1.86918,4.64267 -1.02804,0.85321 -2.25199,3.07653 -2.71987,4.94071 -0.46788,1.86418 -2.25267,5.61029 -3.96619,8.32469 -1.71353,2.7144 -3.5458,8.06388 -4.0717,11.88773 -0.52592,3.82386 -1.5,7.28855 -2.16463,7.69931 -0.66464,0.41076 -1.20843,2.39873 -1.20843,4.41772 0,2.01897 -1.2,6.15459 -2.66666,9.19023 -1.46667,3.03565 -2.66667,7.65969 -2.66667,10.27564 0,2.73012 -1.70399,7.94946 -4,12.25209 -2.2,4.12271 -4,8.84279 -4,10.48907 0,1.64628 -0.89631,4.71181 -1.99179,6.8123 -1.09548,2.1005 -1.99548,5.06908 -2,6.59686 -0.004,1.52778 -0.44885,3.21842 -0.98741,3.75698 -1.27897,1.27898 -4.1198,13.72298 -5.797,25.3932 -0.73204,5.09371 -1.99335,10.05939 -2.80289,11.03483 -0.80955,0.97545 -1.76846,8.97377 -2.1309,17.77404 -0.36242,8.80027 -1.17596,16.32 -1.80782,16.71052 -0.63187,0.39052 -1.17519,6.22463 -1.20738,12.96468 -0.0379,7.93409 -0.8043,14.13499 -2.17384,17.58797 -1.16342,2.93334 -2.39612,8.19995 -2.73932,11.70359 -0.56328,5.75032 -1.06537,6.55467 -5.15949,8.26529 -3.12752,1.30676 -4.53549,2.76878 -4.53549,4.70956 0,4.10972 -12.92671,17.32156 -16.94774,17.32156 -3.83929,0 -7.57169,1.85276 -11.35606,5.63714 -2.53888,2.53888 -2.90228,2.58581 -4.3794,0.56574 -0.88593,-1.21158 -2.55108,-2.20288 -3.70035,-2.20288 -2.03737,0 -7.61645,-5.94377 -7.61645,-8.11433 0,-0.59841 -2.65737,-6.66751 -5.90528,-13.48685 -6.98709,-14.67023 -18.09472,-44.05791 -18.09472,-47.87359 0,-1.47544 -0.45,-2.40449 -1,-2.06457 -0.55,0.33992 -1.01835,-3.97467 -1.04076,-9.58798 -0.0848,-21.2488 -2.18811,-61.13568 -3.56137,-67.53934 C 821.61154,525 819.42933,519 817.54851,515.33333 c -1.88081,-3.66666 -3.82942,-10.26666 -4.33024,-14.66666 -0.50081,-4.4 -1.42981,-9.8 -2.06444,-12 -0.63461,-2.2 -1.0222,-18.4 -0.86128,-36 0.3071,-33.58892 -1.08492,-39.17111 -3.63514,-14.5775 -0.74159,7.15159 -2.54288,16.87038 -4.00288,21.59731 -1.46,4.72692 -2.6623,10.18121 -2.67175,12.12064 -0.0183,3.75453 -3.38096,15.2322 -7.67379,26.19288 -1.47756,3.7726 -2.71185,10.42057 -2.84325,15.314 -0.12773,4.75604 -0.79788,12.55604 -1.48924,17.33333 -0.69137,4.77731 -1.26892,18.11752 -1.28344,29.64495 -0.0232,18.41509 -0.35392,21.58728 -2.72481,26.13593 -1.52891,2.93327 -3.04215,9.16319 -3.49154,14.37439 -0.43622,5.05857 -1.71104,10.66227 -2.83292,12.45265 -2.5257,4.03074 -3.93973,9.37248 -6.55021,24.74475 -2.37321,13.97499 -2.45291,22.02591 -0.54117,54.66667 1.54572,26.39134 4.38178,39.02192 10.16258,45.25949 1.98058,2.13708 3.28499,5.14043 3.28499,7.56352 0,5.56032 1.86852,8.52287 6.61571,10.48921 2.22802,0.92288 4.05096,1.86604 4.05096,2.09591 0,0.22988 -3.3,3.71796 -7.33334,7.75129 -6.34694,6.34694 -7.33333,8.02319 -7.33333,12.4621 0,4.34817 1.03663,6.2156 6.81109,12.26978 3.74611,3.92756 7.71354,9.30875 8.81652,11.95819 2.19762,5.27881 3.81676,6.76577 7.40098,6.79676 1.29905,0.0107 4.70008,1.56773 7.55782,3.45891 4.27244,2.82736 5.68922,3.17449 7.97142,1.95308 3.68538,-1.97235 3.49942,-3.30036 -0.7321,-5.22838 -3.30461,-1.50568 -3.45018,-1.96174 -2.51552,-7.88068 0.54564,-3.45538 1.42774,-9.22013 1.9602,-12.81054 0.91542,-6.17254 1.68139,-7.2804 7.6141,-11.01244 2.35124,-1.47908 2.32928,-1.75528 -0.55118,-6.93083 -5.42192,-9.74201 -3.11512,-18.85595 3.17939,-12.56144 3.42333,3.42333 3.76343,3.44228 16.3764,0.91203 l 4.55579,-0.91392 -2.88912,4.67469 c -1.58902,2.57108 -2.88912,6.24581 -2.88912,8.16608 0,2.67395 -1.01458,3.92077 -4.33334,5.32527 -9.10481,3.85317 -12.42802,12.50501 -10.93266,28.46273 0.84385,9.00525 1.43521,10.53821 6.43098,16.67085 3.02592,3.71451 6.06767,7.52539 6.75942,8.46863 0.88516,1.20695 0.0551,2.83836 -2.802,5.50732 -2.23286,2.0858 -5.02664,5.66215 -6.20842,7.94747 -1.18178,2.2853 -3.03729,4.49609 -4.12336,4.91285 -1.08608,0.41677 -2.71384,3.22487 -3.61726,6.24023 -1.80654,6.02969 -3.39567,7.28737 -11.01359,8.7165 -3.82431,0.71744 -5.76615,2.04894 -7.65361,5.24795 -2.43503,4.12705 -3.08704,4.37683 -17.51767,6.7106 -8.24367,1.33321 -18.58849,2.3156 -22.98849,2.18312 -19.3486,-0.58263 -29.65483,-0.53477 -34,0.15785 -2.56667,0.40914 -7.66667,0.22248 -11.33333,-0.41477 z m 468.42108,-29.40749 c -1.2665,-3.633 -1.9015,-4.03916 -5.264,-3.36667 -2.1178,0.42356 -3.8238,0.18476 -3.8238,-0.53525 0,-0.715 -1.4571,-1.3 -3.2381,-1.3 -1.7809,0 -4.1461,-0.90804 -5.2559,-2.01786 -1.1098,-1.10982 -4.0027,-2.39644 -6.4286,-2.85914 -2.4259,-0.4627 -6.7771,-2.02627 -9.6695,-3.47459 -4.2118,-2.10904 -5.7546,-2.32367 -7.7492,-1.07803 -2.1583,1.34792 -3.4572,0.57294 -9.7412,-5.81226 -4.639,-4.71371 -7.2508,-8.4982 -7.2508,-10.50636 0,-2.03903 -1.801,-4.58608 -5.1401,-7.26948 -4.5546,-3.66018 -5.3665,-3.9043 -7.1276,-2.14318 -1.7611,1.76111 -2.2336,1.61191 -4.148,-1.30994 -1.2104,-1.84726 -4.0862,-3.71307 -6.5391,-4.24251 -7.5081,-1.62059 -14.3785,-4.83079 -14.3785,-6.71836 0,-2.56372 -7.6956,-11.00907 -12.1135,-13.29364 -2.0447,-1.05735 -4.6015,-1.58328 -5.6817,-1.16875 -5.3422,2.04998 -12.8715,-6.39086 -12.8715,-14.42969 0,-1.48903 -1.159,-2.89561 -2.7228,-3.30457 -2.4075,-0.62956 -2.6276,-1.42594 -1.9005,-6.87518 0.4523,-3.38972 1.0587,-6.91313 1.3477,-7.8298 0.6288,-1.99532 6.7665,-2.2357 7.9557,-0.31158 1.2011,1.94344 3.3199,0.25796 3.3199,-2.64095 0,-1.35401 2.1,-4.97537 4.6667,-8.04747 5.2706,-6.30852 5.5762,-7.36565 2.4738,-8.55616 -2.2998,-0.88252 -4.1519,0.36718 -13.375,9.02442 -3.5525,3.33465 -6.3274,4.93474 -7.6666,4.42085 -3.0455,-1.16865 -2.5912,-7.52651 0.7953,-11.13125 1.5917,-1.69438 2.6417,-3.25891 2.3333,-3.47675 -0.3085,-0.21784 -4.4608,-1.94833 -9.2275,-3.84556 -7.298,-2.90475 -8.7337,-4.00583 -9.0914,-6.97235 -0.354,-2.93552 0.3533,-3.84796 4.2421,-5.47282 2.5668,-1.07248 5.0734,-2.60768 5.5703,-3.41155 0.4968,-0.80385 2.2902,-1.11345 3.9854,-0.68799 2.5818,0.64799 3.2208,0.14246 3.9361,-3.1139 0.4696,-2.13812 1.6739,-4.20219 2.6762,-4.5868 1.0023,-0.38462 2.0156,-2.33847 2.2518,-4.3419 0.515,-4.36793 2.6993,-5.38797 5.5128,-2.57442 1.24,1.2399 4.4203,2.05952 7.9915,2.05952 6.3183,0 8.0652,1.26676 9.3845,6.80512 0.6908,2.89976 -0.1577,4.39474 -5.1495,9.07341 -3.287,3.08089 -5.9765,6.12091 -5.9765,6.7556 0,0.63469 1.7789,1.54469 3.9531,2.02223 3.0037,0.65972 4.6849,0.18284 7,-1.98559 1.6758,-1.56961 4.728,-3.19385 6.7826,-3.60944 2.8208,-0.57056 4.5623,-2.38687 7.1112,-7.41689 l 3.3755,-6.66131 7.9386,0.71984 c 4.3663,0.39592 8.9086,1.52472 10.0942,2.50844 1.1855,0.98372 5.2131,1.94148 8.9502,2.12835 12.9669,0.64838 32.135,0.0764 33.4613,-0.99843 0.7333,-0.59433 3.9209,-1.77249 7.0834,-2.61815 3.1625,-0.84565 6.6125,-1.8685 7.6667,-2.27301 1.0946,-0.42004 1.9166,0.0517 1.9166,1.10008 0,1.00955 2.6041,5.31709 5.7869,9.57233 3.1827,4.25523 6.8546,11.12428 8.1598,15.26456 2.6018,8.25396 4.6964,12.0383 10.328,18.65926 2.0489,2.40884 3.7253,5.28504 3.7253,6.39154 0,1.1065 3.1887,5.13562 7.0861,8.9536 6.6777,6.54164 16.3814,20.11716 21.4837,30.05567 1.6739,3.26063 2.1311,6.64028 1.7136,12.66667 -0.539,7.77818 -0.7526,8.21945 -3.9779,8.21945 -1.8745,0 -4.8101,1.27059 -6.5236,2.82353 -1.7134,1.55295 -4.8385,3.91995 -6.9447,5.26 -3.6959,2.3515 -3.8008,2.71087 -3.007,10.30543 0.4524,4.32792 0.4736,9.25893 0.047,10.95779 -0.8716,3.47285 -6.5059,5.56474 -9.1277,3.3889 -2.0057,-1.66466 -3.4164,-0.50033 -3.4164,2.81991 0,1.68495 -0.9849,2.44444 -3.1701,2.44444 -1.7435,0 -3.917,0.9 -4.8299,2 -0.9129,1.1 -3.1176,2 -4.8993,2 -2.4235,0 -3.6022,-1.04059 -4.6796,-4.13141 z M 683.00994,637.95704 c -1.86014,-1.30288 -3.16642,-4.09007 -3.75433,-8.01044 -0.75607,-5.04183 -2.2348,-7.35219 -9.16084,-14.3128 -4.54259,-4.56525 -11.38357,-12.29519 -15.20219,-17.17763 -3.81861,-4.88244 -9.8049,-10.71368 -13.30288,-12.9583 -3.49796,-2.24464 -7.6427,-5.81622 -9.21054,-7.93683 -1.96132,-2.65283 -4.4498,-4.11139 -7.9768,-4.67537 -4.14862,-0.6634 -5.41888,-1.59518 -6.66106,-4.88607 -0.97604,-2.58584 -2.96897,-4.56628 -5.47372,-5.43944 -2.16636,-0.7552 -5.884,-3.79359 -8.26144,-6.752 -3.87596,-4.82312 -4.77246,-5.29451 -8.67634,-4.56213 -3.2874,0.61672 -4.55492,0.29252 -5.17512,-1.32368 -1.36052,-3.54547 -0.95156,-4.58902 1.7984,-4.58902 1.44087,0 3.15157,-1.05 3.80159,-2.33333 2.0786,-4.10381 4.69673,-36.99328 3.75882,-47.21895 -2.07765,-22.65194 -3.44345,-35.41608 -4.29234,-40.11438 -0.8048,-4.45424 -0.6031,-5 1.84786,-5 1.59232,0 3.11255,1.13828 3.60892,2.70218 1.25513,3.95459 6.50435,6.87563 11.48184,6.38934 3.9956,-0.39038 4.48927,-0.96588 6.08292,-7.09152 C 619.19661,449 621.18738,434.3 622.66664,420 c 3.23325,-31.25612 3.82336,-35.96881 4.67678,-37.34969 0.36095,-0.58403 0.95096,-9.06926 1.31114,-18.85608 0.75998,-20.65112 2.53365,-40.06874 3.85533,-42.20726 1.29183,-2.09022 6.19639,-24.53446 7.63085,-34.9203 2.29432,-16.61134 3.46546,-22.04784 6.31898,-29.33334 4.39665,-11.22537 3.89277,-16.63848 -2.1264,-22.84336 -4.4536,-4.59101 -5.70864,-5.1544 -11.48472,-5.15545 l -6.48474,-0.001 1.1514,-6.33333 c 2.42719,-13.35101 0.009,-61.05113 -3.515,-69.33333 -0.70204,-1.65 -2.3393,-3.02711 -3.63836,-3.06026 -5.03769,-0.12853 9.83054,-6.48796 15.30475,-6.54616 3.11667,-0.0332 5.71257,-0.51025 5.76868,-1.06025 0.48777,-4.7814 1.85636,-7.06407 7.10279,-11.84676 4.69005,-4.2755 6.24734,-6.75996 6.93577,-11.06516 0.75885,-4.74567 1.64496,-5.93802 6.10305,-8.21237 2.8684,-1.46335 9.02739,-6.45402 13.68662,-11.09036 4.65922,-4.63635 10.01876,-8.818106 11.91005,-9.292793 4.15032,-1.041664 16.05713,-7.941573 21.26196,-12.32114 C 710.50853,77.427137 713.27764,76 714.58914,76 c 1.31151,0 3.90338,-1.194707 5.75972,-2.654904 1.85634,-1.460197 6.09504,-3.820784 9.41936,-5.245749 3.32431,-1.424964 6.66029,-3.742056 7.41332,-5.149094 1.00692,-1.881446 3.41275,-2.784133 9.09379,-3.412073 4.24856,-0.469604 10.12465,-1.707364 13.05798,-2.750579 5.27547,-1.876169 5.33803,-1.860569 5.76615,1.437676 0.23805,1.833935 -0.51195,5.695636 -1.66667,8.581558 -1.49464,3.735493 -2.09948,9.771941 -2.09948,20.95348 0,10.382361 -0.53889,16.245255 -1.58981,17.296165 -1.07151,1.0715 -1.74916,9.30895 -2.07859,25.26667 -0.26882,13.02226 -1.00653,24.87685 -1.63933,26.34352 -0.63281,1.46666 -1.50881,8.01886 -1.94665,14.56045 -0.43786,6.54159 -1.31546,12.54159 -1.95023,13.33333 -0.63476,0.79175 -1.55556,3.53955 -2.04621,6.10622 -2.06842,10.82036 -5.32783,15.31105 -12.08251,16.64685 -0.73333,0.14503 -2.85675,0.69208 -4.7187,1.21569 -1.86196,0.5236 -4.89354,0.37862 -6.73684,-0.32221 -4.2831,-1.62843 -7.87506,0.28124 -7.886,4.19259 -0.004,1.61356 -0.83755,4.52324 -1.85118,6.46596 -1.01362,1.94272 -2.27593,7.94272 -2.80513,13.33333 -1.20365,12.26108 -6.49068,43.1796 -9.19992,53.80112 -1.12231,4.4 -2.06195,11.65228 -2.08807,16.11617 -0.0541,9.24278 -3.393,33.1119 -4.97676,35.57775 -2.07124,3.22484 -4.2874,13.76061 -4.34522,20.65751 -0.0324,3.85994 -0.61788,8.05994 -1.30114,9.33333 -1.66408,3.10129 -10.32854,48.43895 -11.39944,59.64857 -2.3889,25.0062 -3.59929,35.24156 -4.57252,38.66667 -0.62513,2.2 -1.23561,6.38611 -1.35664,9.30247 -0.345,8.31356 -2.53501,16.67744 -6.6414,25.3642 -4.09384,8.66024 -8.12104,20.88732 -8.12104,24.65652 0,4.21816 3.51775,5.76632 11.28155,4.96502 5.30212,-0.54722 7.6454,-0.24782 8.78235,1.12211 0.85288,1.02767 4.48741,2.25804 8.07673,2.73419 l 6.52604,0.8657 v 41.67582 c 0,34.37553 -0.34889,42.3448 -1.99179,45.49489 -1.09548,2.10049 -2.01584,4.71908 -2.04524,5.81908 -0.0293,1.1 -1.114,4.23991 -2.41021,6.97759 -2.23508,4.72062 -2.50401,4.87442 -5.20947,2.97945 z m 236.66061,-3.62371 c 0.73173,-0.91666 1.75936,-12.76666 2.28361,-26.33333 0.52426,-13.56667 1.41919,-25.26667 1.98875,-26 0.56957,-0.73333 1.45399,-4.61833 1.96537,-8.63333 0.51139,-4.015 1.41146,-7.915 2.00015,-8.66667 0.58869,-0.75167 1.39525,-5.13908 1.79236,-9.74981 0.39711,-4.61074 1.30119,-9.11074 2.00908,-10 0.70788,-0.88927 1.69999,-4.47006 2.20468,-7.95731 0.50469,-3.48725 1.77668,-7.98725 2.82664,-10 1.04996,-2.01275 1.91272,-4.6778 1.91724,-5.92233 0.004,-1.24452 1.54816,-5.14452 3.43031,-8.66667 1.88216,-3.52213 3.76781,-9.2714 4.19033,-12.77616 0.42253,-3.50475 1.28259,-6.69016 1.91124,-7.07868 0.62865,-0.38853 1.143,-1.92843 1.143,-3.422 0,-1.49357 0.86603,-4.30817 1.92451,-6.25465 1.05846,-1.94648 2.29313,-6.37507 2.74369,-9.84131 0.45056,-3.46624 1.38455,-6.65165 2.07551,-7.07869 0.69096,-0.42704 1.25629,-2.80562 1.25629,-5.28572 0,-2.48011 0.54808,-4.84803 1.21797,-5.26204 1.45046,-0.89643 6.78203,-11.63684 6.78203,-13.66234 0,-0.77868 0.85623,-2.12637 1.90271,-2.99488 1.08345,-0.89918 2.30138,-5.41876 2.82861,-10.4966 0.50924,-4.90461 1.38661,-9.51748 1.94972,-10.25081 0.56311,-0.73333 1.45664,-7.03333 1.98563,-14 0.52898,-6.96667 1.41938,-13.26667 1.97868,-14 0.55928,-0.73333 1.31674,-9.58013 1.68325,-19.65955 0.46436,-12.77001 1.22299,-18.99598 2.50223,-20.53538 1.32962,-1.60002 1.96172,-7.76022 2.29234,-22.34046 0.25108,-11.0722 0.9254,-20.73128 1.49848,-21.46461 0.57308,-0.73333 1.4738,-4.33333 2.0016,-8 0.5278,-3.66667 1.47968,-7.29945 2.11528,-8.07285 0.63559,-0.7734 1.56038,-6.4734 2.05507,-12.66667 0.49471,-6.19327 1.36237,-11.86048 1.92815,-12.59381 0.56577,-0.73334 1.46053,-4.33334 1.98833,-8 0.5278,-3.66667 1.40204,-7.26667 1.94275,-8 0.54072,-0.73334 1.35942,-3.80395 1.81936,-6.82359 0.45993,-3.01964 1.73814,-7.21964 2.8405,-9.33333 1.1023,-2.1137 2.0079,-6.01962 2.0124,-8.67983 0,-2.66373 0.9068,-5.58245 2.0082,-6.49659 1.1389,-0.94513 2,-3.85216 2,-6.75124 0,-2.80025 0.5115,-5.40746 1.1366,-5.79378 0.625,-0.38632 1.5089,-4.69083 1.9641,-9.56558 0.4552,-4.87473 1.4928,-9.6646 2.3058,-10.64414 0.8253,-0.9944 1.8103,-9.70436 2.2302,-19.72103 0.9196,-21.93101 0.8646,-21.87376 17.926,-18.65583 12.7144,2.39806 18.8082,6.00056 28.6425,16.93296 7.3722,8.1953 17.4599,13.44362 23.3522,12.14944 3.2125,-0.70557 3.7912,-0.33206 4.5772,2.95408 1.3097,5.47555 2.3528,6.3745 10.6794,9.2041 6.6012,2.24328 8.2559,3.57981 13.46,10.87244 4.9137,6.88564 7.4277,9.02785 14.6268,12.46362 4.7812,2.28188 9.6893,5.14024 10.9068,6.35192 1.2175,1.21167 8.5089,5.41218 16.203,9.33444 16.0723,8.19318 18.2142,9.82322 19.2812,14.67352 0.4538,2.06318 2.8384,4.90607 5.7422,6.84592 7.229,4.8293 21.5858,18.74183 23.8512,23.11315 1.1082,2.13849 1.6155,5.30543 1.1746,7.33333 -0.6722,3.09208 0.074,4.19532 5.5821,8.25087 3.497,2.57484 8.3358,7.67484 10.753,11.33333 5.0489,7.64168 6.4069,9.26299 12.0206,14.35143 3.0154,2.73325 4.5527,5.82075 5.8853,11.82021 1.7761,7.9964 1.9024,8.15808 8.2614,10.57191 3.5518,1.34823 7.6632,3.74517 9.1365,5.32655 2.2598,2.42558 3.6395,2.75108 8.8233,2.08144 7.1221,-0.92004 8.334,-0.33998 11.2719,5.39516 2.7631,5.39404 8.3043,9.33104 15.3664,10.91778 7.0177,1.57678 11.9587,4.78338 13.4616,8.7362 0.7125,1.87399 2.6571,3.37359 4.9761,3.8374 2.6408,0.52816 4.7113,2.37104 6.7608,6.01767 2.5277,4.49736 2.7391,5.87349 1.4644,9.53015 -1.0998,3.15488 -1.0971,5.13569 0.011,7.56592 3.1792,6.97769 0.7195,16.97688 -5.9038,23.99962 -6.7989,7.20888 -10.5591,13.91548 -10.1247,18.05768 0.2574,2.45322 -0.5723,4.4256 -2.5416,6.04239 -1.608,1.32017 -3.9132,3.41653 -5.1226,4.65859 -1.2095,1.24205 -4.8692,2.85822 -8.1328,3.59149 -6.2202,1.39761 -9.3412,4.25407 -9.3412,8.54961 0,2.05503 -0.648,2.39372 -3.3043,1.72703 -2.1128,-0.53027 -5.1107,0.13883 -8.3136,1.85545 -2.7551,1.47664 -6.5181,2.70474 -8.3623,2.7291 -1.8442,0.0244 -5.7531,1.70964 -8.6864,3.74505 -4.886,3.39032 -5.2986,4.14153 -4.9189,8.95569 0.3658,4.63794 -0.06,5.53483 -3.624,7.63847 -7.7696,4.58565 -11.9509,9.07596 -14.2665,15.32108 -1.2839,3.46248 -3.5,7.99049 -4.9246,10.06225 -1.9229,2.79631 -2.406,5.14071 -1.8751,9.09907 0.6197,4.62001 0.4187,5.19965 -1.5045,4.33969 -1.2209,-0.54588 -4.7116,-1.24625 -7.7572,-1.55637 -4.7267,-0.48129 -5.6682,-0.15193 -6.4304,2.24944 -0.7713,2.42997 -8.131,6.768 -11.4824,6.768 -0.6185,0 -1.5212,-2.98953 -2.0059,-6.6434 -0.4847,-3.65388 -1.7053,-7.32735 -2.7126,-8.16327 -1.0077,-0.83592 -1.8318,-2.43478 -1.8318,-3.55302 0,-2.88943 -6.314,-21.0478 -9.4889,-27.28888 -0.6478,-1.27339 -1.1778,-3.24222 -1.1778,-4.37519 0,-1.13296 -0.9,-2.40529 -2,-2.8274 -1.1,-0.42212 -2,-1.40825 -2,-2.19144 0,-1.27516 -7.9633,-17.67149 -12.7689,-26.29073 -1.0221,-1.83334 -1.8673,-5.26223 -1.8781,-7.61976 -0.013,-2.9224 -0.8766,-4.74504 -2.7125,-5.72763 -2.8952,-1.54945 -15.82,-1.06144 -38.1157,1.43913 -7.2553,0.81372 -15.9598,1.11612 -19.3434,0.67202 -4.2052,-0.55198 -6.5846,-0.27318 -7.5193,0.88105 -0.7521,0.92868 -1.769,8.58852 -2.2597,17.02185 -0.4908,8.43334 -1.7275,18.33334 -2.7483,22 C 1082.2999,483 1081.167,490.5 1080.8031,496 c -0.3639,5.5 -1.6506,16.6 -2.8595,24.66667 -1.2088,8.06666 -2.4109,19.16666 -2.6714,24.66666 -0.2605,5.5 -1.1033,13.2319 -1.8729,17.18199 -0.7696,3.95009 -1.3993,7.36281 -1.3993,7.58381 0,0.22102 -2.6691,2.31864 -5.9313,4.6614 -5.0572,3.63174 -5.8266,4.78319 -5.2208,7.81227 0.6019,3.00983 0,3.9338 -3.9202,6.04655 -4.016,2.16276 -5.1783,2.26705 -8.7547,0.78564 -3.6488,-1.51135 -5.0871,-1.32778 -12.4818,1.59308 -10.6589,4.21016 -26.1459,5.78633 -29.7872,3.03158 -3.6278,-2.74457 -7.64673,-2.48486 -13.31678,0.86055 -3.84612,2.26927 -5.4066,2.57289 -7.26343,1.41328 -1.72773,-1.07897 -3.65783,-1.08009 -7.16361,-0.004 -4.05607,1.24484 -5.19824,1.1112 -7.38026,-0.86349 -4.151,-3.7566 -7.3455,-2.21694 -8.11328,3.91038 -0.63742,5.08706 -0.85674,5.30207 -5,4.9018 -4.4916,-0.43392 -5.45769,0.76094 -2.78017,3.43846 1.18199,1.18198 0.10387,2.17437 -4.5112,4.15264 -3.33539,1.4297 -6.8906,3.77912 -7.90047,5.2209 -1.00986,1.44179 -3.02982,2.84923 -4.4888,3.12764 -1.61066,0.30738 -2.83453,1.78975 -3.1156,3.7737 -0.57748,4.07625 -3.78678,6.60764 -8.44724,6.66289 -2.38269,0.0283 -3.85938,0.93267 -4.42318,2.70907 -0.46551,1.46666 -1.4794,2.66666 -2.25311,2.66666 -0.94607,0 -0.97107,-0.5458 -0.0763,-1.66666 z M 1101.5135,368.43776 c 3.9342,-1.22591 8.1004,-3.02591 9.2581,-4 1.1578,-0.97411 2.7524,-1.77109 3.5436,-1.77109 2.3056,0 15.0181,-6.93207 15.0181,-8.1893 0,-0.62922 0.8511,-1.14404 1.8913,-1.14404 2.3175,0 7.442,-7.99957 7.442,-11.6174 0,-3.43324 -3.5996,-6.52585 -8.9078,-7.65325 -4.7325,-1.00508 -6.306,-2.50663 -7.7507,-7.39601 -0.9623,-3.25683 -7.0986,-9.61068 -15.1697,-15.70751 -3.8902,-2.93865 -7.8915,-9.99476 -10.3731,-18.29249 -1.1558,-3.86476 -1.4656,-4 -9.1641,-4 h -7.9679 l -0.8108,22.66666 c -0.8146,22.77068 -1.8829,28.27055 -6.8559,35.29668 -1.2833,1.81316 -2.3333,5.22776 -2.3333,7.58798 0,2.36021 -0.6,4.66212 -1.3333,5.11534 -1.4868,0.91888 -1.8331,9.05587 -0.4445,10.44444 1.8731,1.87307 26.8037,0.88927 33.958,-1.34001 z M 581.46223,533.22252 c -1.65827,-2.24291 -5.65987,-5.21173 -8.89246,-6.59739 -3.2326,-1.38564 -9.03322,-4.87561 -12.89028,-7.75548 -3.85706,-2.87986 -9.48686,-6.4771 -12.51066,-7.99385 -3.6047,-1.80812 -7.16446,-5.26859 -10.3378,-10.04944 -3.62687,-5.46412 -7.26171,-8.76043 -14.50218,-13.15153 -5.35588,-3.24819 -9.48676,-6.64204 -9.26856,-7.61491 0.2165,-0.96529 2.09338,-7.82367 4.17083,-15.24084 2.07745,-7.41716 4.60031,-17.98575 5.60636,-23.48575 1.94959,-10.65826 2.37376,-32.90053 0.74441,-39.03392 -1.36578,-5.14125 -5.45934,-8.92281 -8.73242,-8.06689 -4.88454,1.27735 -5.91975,6.35887 -9.39526,46.11836 -0.81814,9.35965 -2.53005,20.12992 -3.80422,23.93393 -2.2797,6.80603 -2.4073,6.92076 -7.99584,7.19 -4.04787,0.19502 -6.15432,-0.37974 -7.33334,-2.00093 -2.958,-4.06736 -8.1471,-6.80659 -12.95084,-6.83649 -5.14764,-0.032 -14.27511,-3.7249 -19.64299,-7.94726 C 451.53119,452.96292 448.30438,452 444.71215,452 c -8.38369,0 -9.56768,-3.05293 -7.62152,-19.65228 0.83921,-7.15791 1.85661,-22.91439 2.26088,-35.01439 0.40427,-12.1 1.60351,-29.8 2.66497,-39.33333 1.06148,-9.53333 2.49536,-31.15275 3.18643,-48.04313 0.69105,-16.89039 1.8394,-32.19039 2.55188,-34 0.71248,-1.80962 2.6216,-10.50626 4.24249,-19.3259 3.01092,-16.38312 3.02462,-17.67661 0.54627,-51.63097 -0.74029,-10.14233 -0.69684,-10.33376 2.35111,-10.35613 1.70793,-0.012 7.60533,-1.24099 13.10533,-2.72988 5.5,-1.4889 13.29426,-3.30959 17.3206,-4.04598 4.041,-0.73906 8.64517,-2.58325 10.27724,-4.1165 2.39889,-2.25364 4.10805,-2.64784 9.06014,-2.08967 4.88662,0.55079 6.9915,0.0853 10.55736,-2.33452 2.44963,-1.66236 4.9783,-2.64107 5.61926,-2.17489 0.64097,0.46616 1.17493,19.44757 1.1866,42.1809 0.0163,31.732 0.5001,43.8111 2.08292,52 2.03226,10.51415 2.12253,10.67264 6.313,11.08455 3.54846,0.34879 4.47154,-0.16151 5.58373,-3.0868 0.73287,-1.92757 1.33248,-6.57303 1.33248,-10.32321 0,-3.7502 0.57511,-8.66114 1.27801,-10.9132 3.83206,-12.2776 5.76639,-24.97702 6.71638,-44.09467 0.61448,-12.36616 0.55824,-21.86576 -0.13383,-22.6 -0.65664,-0.69667 -1.19389,-3.83167 -1.19389,-6.96667 0,-5.51814 0.11786,-5.67641 3.6963,-4.96073 2.03296,0.40659 8.58294,-0.50841 14.55548,-2.03333 13.14948,-3.35736 11.94923,-3.36392 12.84727,0.0701 0.59277,2.26675 1.36725,2.64861 3.82217,1.88456 1.69332,-0.52701 6.00335,-1.68463 9.57782,-2.57248 5.44489,-1.35244 6.90862,-2.41264 9.02422,-6.53636 2.72015,-5.30212 6.34879,-8.14121 12.11351,-9.47777 3.03352,-0.70332 3.74781,-0.34259 4.30617,2.17472 0.70912,3.19694 3.28984,23.83248 4.37941,35.01789 0.96908,9.94841 -2.06208,25.20204 -7.68374,38.66667 -0.61236,1.46666 -1.47624,5.06666 -1.91975,8 -1.16285,7.69118 -3.3532,17.68884 -5.51068,25.1531 -1.03117,3.56755 -1.87485,9.18095 -1.87485,12.47422 0,5.98321 -3.08973,20.01073 -5.32379,24.17017 -0.65062,1.21137 -1.85414,7.60251 -2.67448,14.20251 -0.82033,6.6 -2.42228,18.9 -3.55989,27.33333 -1.1376,8.43333 -2.53768,22.83333 -3.11127,32 -0.57358,9.16667 -1.77666,22.96667 -2.6735,30.66667 -1.7449,14.98121 -1.14514,43.59716 1.1737,56 2.99512,16.02013 4.12291,41.56128 2.45324,55.55889 -0.88954,7.45739 -1.95997,13.90001 -2.37872,14.31693 -0.41876,0.41692 -2.11813,-1.07706 -3.77638,-3.31997 z M 407.57187,442.45269 c -8.14437,-4.11826 -12.63321,-9.15317 -16.77511,-18.81582 -1.49945,-3.4981 -3.75164,-6.75364 -5.00484,-7.23455 -1.2532,-0.48089 -7.0912,-0.17291 -12.97332,0.68443 -10.51537,1.53262 -10.75172,1.50422 -14.09002,-1.69326 C 354.69132,411.52655 346.74168,408 342.06195,408 c -1.84636,0 -6.01367,-0.71055 -9.26066,-1.57899 -4.5986,-1.22993 -7.1163,-1.21566 -11.38931,0.0645 -4.98508,1.49356 -5.85913,1.37761 -9.57823,-1.27062 -4.06089,-2.89161 -4.17958,-2.89706 -15.3354,-0.70514 -7.90741,1.55368 -11.98664,1.81096 -13.74998,0.86725 -1.79667,-0.96155 -3.88368,-0.76663 -7.36467,0.68781 -2.94075,1.22872 -6.56035,1.71015 -9.17288,1.22004 -6.13673,-1.15126 -27.23571,3.07387 -31.65095,6.33819 -2.91949,2.15848 -4.85114,2.54328 -9.44816,1.88212 -3.6167,-0.52017 -7.77357,-0.12907 -11.11172,1.04544 -2.93554,1.03285 -5.93872,1.37695 -6.67986,0.76535 -0.74059,-0.61114 -5.03936,-1.52896 -9.55283,-2.0396 -6.6532,-0.75272 -8.33846,-1.43388 -8.90469,-3.59914 -0.70504,-2.69606 -3.22465,-2.79705 -10.86261,-0.43538 -4.34202,1.34256 -10.88056,-3.76147 -14.76692,-11.52716 -4.24411,-8.48047 -8.2162,-13.04804 -11.34698,-13.04804 -2.55472,0 -6.15977,-3.91624 -13.21944,-14.36055 -3.23136,-4.78057 -5.5729,-6.9146 -7.61314,-6.9384 -2.33023,-0.0272 -3.26243,-1.21956 -4.45712,-5.70105 -2.29755,-8.61846 -3.11676,-9.60136 -8.73255,-10.47746 -2.85845,-0.44594 27.94168,-0.89594 68.44473,-1 69.59997,-0.17882 87.69113,-0.98708 95.69141,-4.2752 1.46667,-0.6028 5.06667,-1.38793 8,-1.74474 8.11091,-0.98663 19.15322,-3.2339 20.75523,-4.224 0.786,-0.48578 1.26207,-3.19663 1.05792,-6.02412 -0.20415,-2.8275 0.0544,-5.56644 0.57451,-6.08658 1.95936,-1.95936 0.8302,-5.84876 -2.29191,-7.89444 -2.61017,-1.71026 -5.77537,-1.98992 -16.33333,-1.44309 -7.20266,0.37304 -25.09575,1.2618 -39.76242,1.97501 -25.21382,1.22612 -34.67532,2.31271 -48.66666,5.58904 -22.00305,5.15242 -25.23952,5.37622 -64.39139,4.45246 -35.77277,-0.84402 -38.4834,-1.07775 -39.74053,-3.42671 -0.74203,-1.38649 -1.00742,-3.59757 -0.58976,-4.91349 0.93818,-2.95596 -2.263178,-5.91834 -8.944986,-8.27723 -4.184793,-1.47736 -4.999999,-2.38063 -4.999999,-5.54013 0,-4.81084 -3.342118,-12.86152 -6.347479,-15.29018 -1.275553,-1.03078 -4.245381,-2.74037 -6.599616,-3.7991 -3.453065,-1.55288 -4.676068,-3.25722 -6.327297,-8.81751 -1.125779,-3.79091 -2.947844,-7.88812 -4.049035,-9.10492 -1.10119,-1.2168 -2.395889,-5.97932 -2.877106,-10.58336 -0.481219,-4.60405 -1.532961,-8.89969 -2.337205,-9.54587 -0.804244,-0.64617 -3.412262,-2.73724 -5.795595,-4.64681 -2.383333,-1.90957 -4.333333,-4.56955 -4.333333,-5.91105 0,-4.4304 -1.576832,-6.65719 -4.71408,-6.65719 -5.499428,0 -10.36281,-6.79676 -9.223967,-12.89085 0.501802,-2.6852 -0.659413,-6.45462 -4.020231,-13.05006 -2.599214,-5.10082 -5.391251,-13.09528 -6.204526,-17.76545 -1.199581,-6.88849 -2.078766,-8.76463 -4.657938,-9.93979 -2.748644,-1.25236 -3.176492,-2.36768 -3.15884,-8.23454 0.02923,-9.71598 1.437287,-11.3734 6.234145,-7.33824 2.104609,1.77041 6.359687,4.36068 9.455728,5.75614 5.244569,2.36387 5.795546,2.38664 8.064425,0.33334 1.339392,-1.21214 3.438015,-2.20388 4.663605,-2.20388 5.846421,0 -1.384794,-7.12816 -9.384844,-9.25111 -4.938141,-1.31041 -5.717638,-2.04631 -6.481721,-6.11921 -0.477692,-2.54632 -0.473908,-6.7332 0.0084,-9.30418 0.696999,-3.71532 0.224518,-5.56205 -2.302624,-9 -1.74876,-2.37902 -5.01336,-7.65434 -7.254666,-11.72293 -3.666692,-6.65605 -3.910129,-7.79188 -2.429008,-11.33333 0.905351,-2.16475 2.008429,-7.47969 2.451285,-11.810974 0.442856,-4.331285 1.588865,-8.387256 2.546688,-9.013269 2.188337,-1.430251 7.468404,-0.2419 9.949596,2.239292 1.625739,1.625738 2.477408,1.525354 6.172268,-0.727511 5.425325,-3.307979 6.83888,-3.280515 11.580335,0.224995 3.528214,2.608521 4.392539,2.712516 10.261612,1.234666 3.524888,-0.887577 7.159075,-2.236377 8.075971,-2.997333 2.846378,-2.362285 7.998594,0.0048 14.787579,6.793743 7.538789,7.538781 18.914139,22.139011 18.914139,24.276231 0,0.80262 1.5,3.24195 3.33333,5.42074 4.07669,4.84487 4.12443,6.26361 0.42191,12.53892 l -2.91144,4.93451 3.65245,3.14171 c 2.00885,1.72793 4.55773,3.1417 5.66418,3.1417 2.14865,0 8.559,-6.86156 10.10578,-10.81709 1.57287,-4.02228 14.44438,-10.60333 19.0685,-9.74951 3.25324,0.60069 4.73332,-0.0252 7.91612,-3.34728 2.15312,-2.24737 4.91488,-4.08612 6.13726,-4.08612 1.22239,0 3.84104,-1.5 5.81924,-3.33333 C 168.20478,110.89709 180,114.9554 180,124.69521 c 0,6.49201 4.48002,8.64052 11.65396,5.58897 8.64155,-3.67583 19.52219,-6.13325 23.58158,-5.32598 2.14623,0.42681 6.55412,3.42792 9.79533,6.66913 6.43276,6.43276 7.78516,6.69256 5.65358,1.08608 l -1.39016,-3.65638 6.35285,3.73891 c 10.09479,5.94121 15.19055,8.11655 22.75181,9.71259 9.07044,1.9146 9.60104,1.8865 9.60104,-0.50857 0,-2.65627 2.96135,-2.50015 13.14879,0.6932 5.24744,1.64487 9.47921,3.92641 11.09677,5.9828 2.20087,2.79796 3.73578,3.324 9.6988,3.324 3.8963,0 8.80274,0.90427 10.90323,2.00949 2.12427,1.11774 5.35808,1.68179 7.28704,1.27104 2.71588,-0.57832 5.02912,0.51702 10.66667,5.05074 3.95929,3.18405 8.72526,5.89514 10.59105,6.02465 1.8658,0.12947 5.96954,1.14476 9.11944,2.25611 3.99082,1.40804 6.46644,1.62493 8.16589,0.71541 1.80835,-0.9678 4.27647,-0.44973 9.54724,2.00397 3.90963,1.82007 8.38215,3.31507 9.93892,3.32223 3.24052,0.0149 14.85481,4.83068 17.83616,7.39561 1.1,0.94636 6.04293,3.3334 10.98431,5.30454 8.982,3.58297 13.98556,3.84996 23.99105,1.28017 2.00312,-0.51448 5.15312,-0.55616 7,-0.0927 3.28497,0.82447 3.35799,1.11036 3.35851,13.15072 l 5.3e-4,12.30794 -13.6672,-0.87723 c -7.68104,-0.493 -18.92313,-2.31623 -25.6672,-4.16268 -7.37048,-2.01795 -17.65831,-3.61087 -26.66667,-4.12891 -8.06666,-0.4639 -17.06666,-1.42638 -20,-2.13884 -2.93333,-0.71246 -19.88986,-1.3097 -37.68119,-1.3272 -29.94454,-0.0295 -32.78303,0.17274 -38.20496,2.72135 -8.9911,4.22631 -10.49008,6.49215 -9.34687,14.1284 0.75023,5.01115 2.02149,7.41937 5.69336,10.78511 2.60009,2.38333 5.30356,4.33333 6.00771,4.33333 0.70413,0 3.24685,1.5 5.65048,3.33333 2.40362,1.83334 4.91726,3.33334 5.58586,3.33334 0.6686,0 2.30163,1.2 3.62895,2.66666 1.32732,1.46667 3.85461,2.66667 5.61623,2.66667 4.27929,0 15.31745,2.73965 17.31317,4.29711 0.87784,0.68506 2.97784,1.10176 4.66667,0.92598 1.68882,-0.17577 5.7706,0.11707 9.0706,0.65066 3.29999,0.53364 15.89999,1.55732 27.99999,2.27485 12.1,0.71752 25.6,1.51727 30,1.7772 4.4,0.25993 13.1,1.09521 19.33334,1.85617 6.23333,0.76096 15.41052,1.42132 20.39374,1.46747 l 9.06043,0.0839 -0.84599,5 c -0.46528,2.75 -1.65038,7.4 -2.63357,10.33333 -1.16157,3.46555 -2.05319,15.60615 -2.54596,34.66667 -0.41709,16.13333 -1.6574,37.13333 -2.75625,46.66666 -1.09884,9.53334 -2.61787,30.23334 -3.3756,46 -0.75774,15.76667 -1.8095,31.95846 -2.33726,35.98175 -0.93758,7.14763 -1.07046,7.33301 -5.80492,8.09831 -3.72404,0.60197 -6.55882,-0.0832 -12.24941,-2.9607 z" id="path879" inkscape:connector-curvature="0"></path>
</svg>
